<svg width="32" height="40" viewBox="0 0 32 40" fill="none" xmlns="http://www.w3.org/2000/svg">
<path d="M28 4H3.99996C3.26358 4 2.66663 4.59695 2.66663 5.33333V9.33333C2.66663 10.0697 3.26358 10.6667 3.99996 10.6667H28C28.7363 10.6667 29.3333 10.0697 29.3333 9.33333V5.33333C29.3333 4.59695 28.7363 4 28 4Z" stroke="currentColor" stroke-width="2.66667" stroke-linecap="round" stroke-linejoin="round"/>
<path d="M5.33337 10.6667V25.3333C5.33337 26.0406 5.61433 26.7188 6.11442 27.2189C6.61452 27.719 7.2928 28 8.00004 28H24C24.7073 28 25.3856 27.719 25.8857 27.2189C26.3858 26.7188 26.6667 26.0406 26.6667 25.3333V10.6667" stroke="currentColor" stroke-width="2.66667" stroke-linecap="round" stroke-linejoin="round"/>
<path d="M13.3334 16H18.6667" stroke="currentColor" stroke-width="2.66667" stroke-linecap="round" stroke-linejoin="round"/>
</svg>
