<svg width="33" height="40" viewBox="0 0 33 40" fill="none" xmlns="http://www.w3.org/2000/svg">
<path d="M17.2933 2.66666H16.7067C15.9994 2.66666 15.3211 2.94761 14.8211 3.4477C14.321 3.9478 14.04 4.62608 14.04 5.33332V5.57332C14.0395 6.04096 13.9161 6.50024 13.6821 6.90511C13.448 7.30997 13.1117 7.64617 12.7067 7.87999L12.1333 8.21332C11.728 8.44737 11.2681 8.57059 10.8 8.57059C10.3319 8.57059 9.87205 8.44737 9.46667 8.21332L9.26667 8.10666C8.65476 7.75367 7.92779 7.65792 7.24534 7.8404C6.56289 8.02289 5.98074 8.4687 5.62667 9.07999L5.33334 9.58666C4.98035 10.1986 4.88459 10.9255 5.06708 11.608C5.24957 12.2904 5.69538 12.8726 6.30667 13.2267L6.50667 13.36C6.9097 13.5927 7.24483 13.9268 7.47874 14.3291C7.71265 14.7314 7.83719 15.188 7.84 15.6533V16.3333C7.84187 16.8032 7.71954 17.2653 7.48539 17.6727C7.25125 18.0801 6.91361 18.4184 6.50667 18.6533L6.30667 18.7733C5.69538 19.1274 5.24957 19.7095 5.06708 20.392C4.88459 21.0744 4.98035 21.8014 5.33334 22.4133L5.62667 22.92C5.98074 23.5313 6.56289 23.9771 7.24534 24.1596C7.92779 24.3421 8.65476 24.2463 9.26667 23.8933L9.46667 23.7867C9.87205 23.5526 10.3319 23.4294 10.8 23.4294C11.2681 23.4294 11.728 23.5526 12.1333 23.7867L12.7067 24.12C13.1117 24.3538 13.448 24.69 13.6821 25.0949C13.9161 25.4997 14.0395 25.959 14.04 26.4267V26.6667C14.04 27.3739 14.321 28.0522 14.8211 28.5523C15.3211 29.0524 15.9994 29.3333 16.7067 29.3333H17.2933C18.0006 29.3333 18.6789 29.0524 19.179 28.5523C19.6791 28.0522 19.96 27.3739 19.96 26.6667V26.4267C19.9605 25.959 20.0839 25.4997 20.318 25.0949C20.552 24.69 20.8884 24.3538 21.2933 24.12L21.8667 23.7867C22.2721 23.5526 22.7319 23.4294 23.2 23.4294C23.6681 23.4294 24.128 23.5526 24.5333 23.7867L24.7333 23.8933C25.3452 24.2463 26.0722 24.3421 26.7547 24.1596C27.4371 23.9771 28.0193 23.5313 28.3733 22.92L28.6667 22.4C29.0197 21.7881 29.1154 21.0611 28.9329 20.3787C28.7504 19.6962 28.3046 19.1141 27.6933 18.76L27.4933 18.6533C27.0864 18.4184 26.7488 18.0801 26.5146 17.6727C26.2805 17.2653 26.1581 16.8032 26.16 16.3333V15.6667C26.1581 15.1968 26.2805 14.7347 26.5146 14.3273C26.7488 13.9199 27.0864 13.5816 27.4933 13.3467L27.6933 13.2267C28.3046 12.8726 28.7504 12.2904 28.9329 11.608C29.1154 10.9255 29.0197 10.1986 28.6667 9.58666L28.3733 9.07999C28.0193 8.4687 27.4371 8.02289 26.7547 7.8404C26.0722 7.65792 25.3452 7.75367 24.7333 8.10666L24.5333 8.21332C24.128 8.44737 23.6681 8.57059 23.2 8.57059C22.7319 8.57059 22.2721 8.44737 21.8667 8.21332L21.2933 7.87999C20.8884 7.64617 20.552 7.30997 20.318 6.90511C20.0839 6.50024 19.9605 6.04096 19.96 5.57332V5.33332C19.96 4.62608 19.6791 3.9478 19.179 3.4477C18.6789 2.94761 18.0006 2.66666 17.2933 2.66666Z" stroke="currentColor" stroke-width="2" stroke-linecap="round" stroke-linejoin="round"/>
<path d="M17 20C19.2091 20 21 18.2091 21 16C21 13.7909 19.2091 12 17 12C14.7909 12 13 13.7909 13 16C13 18.2091 14.7909 20 17 20Z" stroke="currentColor" stroke-width="2" stroke-linecap="round" stroke-linejoin="round"/>
</svg>
