<svg width="25" height="25" viewBox="0 0 25 25" fill="none" xmlns="http://www.w3.org/2000/svg">
<path d="M12.72 2.82324H12.28C11.7496 2.82324 11.2409 3.03396 10.8658 3.40903C10.4907 3.7841 10.28 4.29281 10.28 4.82324V5.00324C10.2796 5.35397 10.1871 5.69843 10.0115 6.00208C9.83602 6.30573 9.58374 6.55788 9.28 6.73324L8.85 6.98324C8.54596 7.15878 8.20108 7.25119 7.85 7.25119C7.49893 7.25119 7.15404 7.15878 6.85 6.98324L6.7 6.90324C6.24107 6.6385 5.69584 6.56669 5.184 6.70355C4.67217 6.84041 4.23555 7.17478 3.97 7.63324L3.75 8.01324C3.48526 8.47218 3.41345 9.01741 3.55031 9.52924C3.68717 10.0411 4.02154 10.4777 4.48 10.7432L4.63 10.8432C4.93228 11.0178 5.18362 11.2683 5.35905 11.5701C5.53448 11.8718 5.6279 12.2142 5.63 12.5632V13.0732C5.6314 13.4257 5.53965 13.7722 5.36405 14.0778C5.18844 14.3833 4.93521 14.637 4.63 14.8132L4.48 14.9032C4.02154 15.1688 3.68717 15.6054 3.55031 16.1172C3.41345 16.6291 3.48526 17.1743 3.75 17.6332L3.97 18.0132C4.23555 18.4717 4.67217 18.8061 5.184 18.9429C5.69584 19.0798 6.24107 19.008 6.7 18.7432L6.85 18.6632C7.15404 18.4877 7.49893 18.3953 7.85 18.3953C8.20108 18.3953 8.54596 18.4877 8.85 18.6632L9.28 18.9132C9.58374 19.0886 9.83602 19.3408 10.0115 19.6444C10.1871 19.9481 10.2796 20.2925 10.28 20.6432V20.8232C10.28 21.3537 10.4907 21.8624 10.8658 22.2375C11.2409 22.6125 11.7496 22.8232 12.28 22.8232H12.72C13.2504 22.8232 13.7591 22.6125 14.1342 22.2375C14.5093 21.8624 14.72 21.3537 14.72 20.8232V20.6432C14.7204 20.2925 14.8129 19.9481 14.9885 19.6444C15.164 19.3408 15.4163 19.0886 15.72 18.9132L16.15 18.6632C16.454 18.4877 16.7989 18.3953 17.15 18.3953C17.5011 18.3953 17.846 18.4877 18.15 18.6632L18.3 18.7432C18.7589 19.008 19.3042 19.0798 19.816 18.9429C20.3278 18.8061 20.7645 18.4717 21.03 18.0132L21.25 17.6232C21.5147 17.1643 21.5866 16.6191 21.4497 16.1072C21.3128 15.5954 20.9785 15.1588 20.52 14.8932L20.37 14.8132C20.0648 14.637 19.8116 14.3833 19.636 14.0778C19.4604 13.7722 19.3686 13.4257 19.37 13.0732V12.5732C19.3686 12.2208 19.4604 11.8743 19.636 11.5687C19.8116 11.2632 20.0648 11.0095 20.37 10.8332L20.52 10.7432C20.9785 10.4777 21.3128 10.0411 21.4497 9.52924C21.5866 9.01741 21.5147 8.47218 21.25 8.01324L21.03 7.63324C20.7645 7.17478 20.3278 6.84041 19.816 6.70355C19.3042 6.56669 18.7589 6.6385 18.3 6.90324L18.15 6.98324C17.846 7.15878 17.5011 7.25119 17.15 7.25119C16.7989 7.25119 16.454 7.15878 16.15 6.98324L15.72 6.73324C15.4163 6.55788 15.164 6.30573 14.9885 6.00208C14.8129 5.69843 14.7204 5.35397 14.72 5.00324V4.82324C14.72 4.29281 14.5093 3.7841 14.1342 3.40903C13.7591 3.03396 13.2504 2.82324 12.72 2.82324Z" stroke="white" stroke-width="1.5" stroke-linecap="round" stroke-linejoin="round"/>
<path d="M12.5 15.8232C14.1569 15.8232 15.5 14.4801 15.5 12.8232C15.5 11.1664 14.1569 9.82324 12.5 9.82324C10.8431 9.82324 9.5 11.1664 9.5 12.8232C9.5 14.4801 10.8431 15.8232 12.5 15.8232Z" stroke="white" stroke-width="1.5" stroke-linecap="round" stroke-linejoin="round"/>
</svg>
